# xmcd CD database file
#
# Track frame offsets:
#	150
#	15457
#	33049
#
# Disc length: 667 seconds
#
# Revision: 0
# Processed by: cddbd v1.5.1PL2 Copyright (c) Steve Scherf et al.
# Submitted via: CDex 1.51
#
DISCID=12029903
DTITLE=El Pueblo de la Lluvia - caido de las nubes
DYEAR=2004
DGENRE=Salsa
TTITLE0=Vida y Vuelta
TTITLE1=Puede ser
TTITLE2=Sueños
EXTD=YEAR: 2004
EXTT0=
EXTT1=
EXTT2=
PLAYORDER=
